<?xml version="1.0" encoding="UTF-8" standalone="no"?>
<!-- Created with Inkscape (http://www.inkscape.org/) -->

<svg
   width="115"
   height="115"
   viewBox="0 0 30.427083 30.427084"
   version="1.1"
   id="svg1"
   xml:space="preserve"
   xmlns:xlink="http://www.w3.org/1999/xlink"
   xmlns="http://www.w3.org/2000/svg"
   xmlns:svg="http://www.w3.org/2000/svg"><defs
     id="defs1"><linearGradient
       xlink:href="#linearGradient1"
       id="linearGradient2-2"
       x1="25.971146"
       y1="4.4559431"
       x2="4.4559431"
       y2="25.971146"
       gradientUnits="userSpaceOnUse" /><linearGradient
       id="linearGradient1"><stop
         style="stop-color:#ffb74d;stop-opacity:1;"
         offset="0"
         id="stop1-9" /><stop
         style="stop-color:#e57373;stop-opacity:1;"
         offset="1"
         id="stop2-1" /></linearGradient></defs><g
     id="g7"
     style="display:inline"><rect
       style="display:inline;opacity:1;fill:url(#linearGradient2-2);fill-opacity:1;stroke:none;stroke-width:41.8316;stroke-linecap:round;stroke-linejoin:round"
       id="rect37"
       width="30.427084"
       height="30.427084"
       x="-1.7763568e-15"
       y="-1.7763568e-15" /><g
       id="g66"
       style="display:inline"
       transform="matrix(0.59278274,0,0,0.59278274,5.8044755,5.5821657)"><path
         id="path63"
         style="display:inline;fill:none;fill-opacity:1;stroke:#464646;stroke-width:3.20836;stroke-linecap:square;stroke-dasharray:none;stroke-opacity:1"
         d="m 14.409803,4.1177217 h 1.647412 M 15.233508,4.9840598 V 6.7624746 M 26.394827,17.261945 h -0.316375 m -1.064377,0.782917 A 9.9189868,9.8519858 0 0 1 15.238471,27.895823 9.9189868,9.8519858 0 0 1 5.1802489,18.329657 9.9189868,9.8519858 0 0 1 14.665065,8.2021411 9.9189868,9.8519858 0 0 1 24.997498,17.475509" /><path
         id="path64"
         style="display:inline;fill:none;fill-opacity:1;stroke:#fff176;stroke-width:3.14212;stroke-linecap:square;stroke-dasharray:none;stroke-opacity:1"
         d="m 14.175177,4.0846017 h 1.61146 M 14.980907,4.934074 V 6.6778667 M 25.898655,16.972934 h -0.309472 m -1.041149,0.767675 A 9.7025267,9.6601878 0 0 1 14.985761,27.399791 9.7025267,9.6601878 0 0 1 5.1470374,18.01986 9.7025267,9.6601878 0 0 1 14.424868,8.0895057 9.7025267,9.6601878 0 0 1 24.531819,17.182341" /><path
         style="display:inline;fill:#464646;fill-opacity:1;stroke:none;stroke-width:0.270801;stroke-linecap:butt;stroke-linejoin:miter;stroke-miterlimit:0;stroke-dasharray:none;stroke-opacity:1"
         d="M 3.0535447,10.640433 6.4072319,9.2239415 11.162372,16.178767 27.420083,0.48886963 26.062765,9.1955315 10.805305,22.352449 Z"
         id="path65" /><path
         style="display:inline;fill:#aed581;fill-opacity:1;stroke:none;stroke-width:0.264583;stroke-linecap:butt;stroke-linejoin:miter;stroke-miterlimit:0;stroke-dasharray:none;stroke-opacity:1"
         d="M 3.0535447,10.394733 6.3344123,9.0125255 10.986302,15.799023 26.891005,0.48886963 25.563159,8.9848031 10.636989,21.823282 Z"
         id="path66" /></g></g></svg>
