<?xml version="1.0" encoding="UTF-8" standalone="no"?>
<!-- Created with Inkscape (http://www.inkscape.org/) -->

<svg
   width="115"
   height="115"
   viewBox="0 0 30.427083 30.427084"
   version="1.1"
   id="svg1"
   xml:space="preserve"
   xmlns:xlink="http://www.w3.org/1999/xlink"
   xmlns="http://www.w3.org/2000/svg"
   xmlns:svg="http://www.w3.org/2000/svg"><defs
     id="defs1"><linearGradient
       id="linearGradient33"><stop
         style="stop-color:#489d11;stop-opacity:1;"
         offset="0"
         id="stop32" /><stop
         style="stop-color:#aaae00;stop-opacity:1;"
         offset="1"
         id="stop33" /></linearGradient><linearGradient
       id="linearGradient31"><stop
         style="stop-color:#489d11;stop-opacity:1;"
         offset="0"
         id="stop30" /><stop
         style="stop-color:#aaae00;stop-opacity:1;"
         offset="1"
         id="stop31" /></linearGradient><linearGradient
       id="linearGradient29"><stop
         style="stop-color:#489d11;stop-opacity:1;"
         offset="0"
         id="stop28" /><stop
         style="stop-color:#aaae00;stop-opacity:1;"
         offset="1"
         id="stop29" /></linearGradient><linearGradient
       id="linearGradient6"><stop
         style="stop-color:#aaae00;stop-opacity:1;"
         offset="0"
         id="stop7" /><stop
         style="stop-color:#ff3838;stop-opacity:1;"
         offset="1"
         id="stop8" /></linearGradient><linearGradient
       xlink:href="#linearGradient29"
       id="linearGradient22"
       gradientUnits="userSpaceOnUse"
       gradientTransform="matrix(0.11569959,0,0,0.11559987,9.8090157,20.944856)"
       x1="-141.76491"
       y1="7.9117508"
       x2="74.426315"
       y2="-73.291389" /><linearGradient
       xlink:href="#linearGradient33"
       id="linearGradient25"
       gradientUnits="userSpaceOnUse"
       x1="-6.6875162"
       y1="20.673761"
       x2="18.32572"
       y2="11.286689"
       gradientTransform="translate(0.09439035,1.1856925)" /><linearGradient
       xlink:href="#linearGradient31"
       id="linearGradient26"
       gradientUnits="userSpaceOnUse"
       x1="-6.6875157"
       y1="20.673761"
       x2="18.32572"
       y2="11.263605"
       gradientTransform="translate(0,0.22931894)" /><linearGradient
       xlink:href="#linearGradient6"
       id="linearGradient2"
       gradientUnits="userSpaceOnUse"
       gradientTransform="matrix(0.98870864,0,0,0.98701531,-2.591365,2.9795811)"
       x1="10.619599"
       y1="3.3279314"
       x2="26.619598"
       y2="13.327931" /></defs><g
     id="layer4"
     style="display:inline"
     transform="matrix(1.0034698,0,0,0.99999888,1.984375,1.984375)"><rect
       style="display:inline;opacity:1;fill:#000000;fill-opacity:0;stroke:none;stroke-width:41.8316;stroke-linecap:round;stroke-linejoin:round"
       id="rect11"
       width="30.427084"
       height="30.427084"
       x="-1.7763568e-15"
       y="-1.7763568e-15"
       transform="matrix(0.99654219,0,0,1.0000011,-1.9775134,-1.9843772)" /><path
       id="path5"
       style="display:inline;fill:none;fill-opacity:1;stroke:url(#linearGradient2);stroke-width:3.13646;stroke-linecap:square;stroke-dasharray:none"
       d="m 10.565765,1.56823 h 1.605269 M 11.3684,2.4179086 V 4.1621247 M 22.244196,14.459692 h -0.308281 m -1.037149,0.767863 a 9.6652459,9.6625343 0 0 1 -9.52553,9.661525 9.6652459,9.6625343 0 0 1 -9.8009209,-9.382206 9.6652459,9.6625343 0 0 1 9.2421829,-9.932767 9.6652459,9.6625343 0 0 1 10.068115,9.095044" /><path
       id="path21"
       style="display:inline;fill:url(#linearGradient22);fill-opacity:1;stroke:url(#linearGradient25);stroke-width:1.17466;stroke-linecap:round;stroke-linejoin:bevel;stroke-dasharray:none"
       d="m 12.173389,22.383792 c 0,0.402569 -0.323073,0.730534 -0.725369,0.736354 -0.402295,0.0059 -0.73471,-0.312665 -0.746341,-0.715065 -0.01162,-0.4024 0.301833,-0.739573 0.703792,-0.757026 0.401959,-0.01746 0.743437,0.291285 0.766688,0.693179"
       transform="matrix(1.1262082,0,0,1.1262082,-1.6362248,-2.1872201)" /><path
       style="display:inline;fill:none;fill-opacity:1;stroke:url(#linearGradient26);stroke-width:2.34933;stroke-linecap:round;stroke-linejoin:round;stroke-dasharray:none;stroke-opacity:1"
       d="m 7.7666885,12.762696 c 0,-0.538885 0.5388853,-2.694426 3.2333115,-2.694426 2.694425,0 4.311082,1.07777 4.311082,2.694426 0,2.155541 -3.522055,2.033365 -4.311082,3.772197 -0.371127,0.817879 0,2.694426 0,2.694426"
       id="path20"
       transform="matrix(1.1262082,0,0,1.1262082,-1.6362248,-2.1872201)" /></g></svg>
