<?xml version="1.0" encoding="UTF-8" standalone="no"?>
<!-- Created with Inkscape (http://www.inkscape.org/) -->

<svg
   width="115"
   height="115"
   viewBox="0 0 30.427083 30.427084"
   version="1.1"
   id="svg1"
   inkscape:version="1.4.4 (dcaf3e7d9e, 2026-05-05)"
   sodipodi:docname="inkscape.svg"
   xml:space="preserve"
   inkscape:export-filename="done.png"
   inkscape:export-xdpi="427.40869"
   inkscape:export-ydpi="427.40869"
   inkscape:export-batch-name=""
   inkscape:export-batch-path="/home/mani/m.dev/m.git/SimplePresent/assets/icons"
   xmlns:inkscape="http://www.inkscape.org/namespaces/inkscape"
   xmlns:sodipodi="http://sodipodi.sourceforge.net/DTD/sodipodi-0.dtd"
   xmlns:xlink="http://www.w3.org/1999/xlink"
   xmlns="http://www.w3.org/2000/svg"
   xmlns:svg="http://www.w3.org/2000/svg"><sodipodi:namedview
     id="namedview1"
     pagecolor="#2f2f2f"
     bordercolor="#eeeeee"
     borderopacity="1"
     inkscape:showpageshadow="0"
     inkscape:pageopacity="0"
     inkscape:pagecheckerboard="0"
     inkscape:deskcolor="#2f2f2f"
     inkscape:document-units="px"
     showgrid="true"
     inkscape:zoom="3.9707858"
     inkscape:cx="-50.619704"
     inkscape:cy="51.375221"
     inkscape:window-width="2905"
     inkscape:window-height="1359"
     inkscape:window-x="0"
     inkscape:window-y="0"
     inkscape:window-maximized="0"
     inkscape:current-layer="g7"><inkscape:grid
       id="grid1"
       units="mm"
       originx="0"
       originy="0"
       spacingx="0.99999999"
       spacingy="0.99999999"
       empcolor="#0099e5"
       empopacity="0.30196078"
       color="#0099e5"
       opacity="0.14901961"
       empspacing="5"
       enabled="true"
       visible="true" /></sodipodi:namedview><defs
     id="defs1"><linearGradient
       id="linearGradient5"
       inkscape:collect="always"><stop
         style="stop-color:#489d11;stop-opacity:1;"
         offset="0"
         id="stop1" /><stop
         style="stop-color:#aaae00;stop-opacity:1;"
         offset="1"
         id="stop4" /></linearGradient><linearGradient
       id="linearGradient33"
       inkscape:collect="always"><stop
         style="stop-color:#489d11;stop-opacity:1;"
         offset="0"
         id="stop32" /><stop
         style="stop-color:#aaae00;stop-opacity:1;"
         offset="1"
         id="stop33" /></linearGradient><linearGradient
       id="linearGradient31"
       inkscape:collect="always"><stop
         style="stop-color:#489d11;stop-opacity:1;"
         offset="0"
         id="stop30" /><stop
         style="stop-color:#aaae00;stop-opacity:1;"
         offset="1"
         id="stop31" /></linearGradient><linearGradient
       id="linearGradient29"
       inkscape:collect="always"><stop
         style="stop-color:#489d11;stop-opacity:1;"
         offset="0"
         id="stop28" /><stop
         style="stop-color:#aaae00;stop-opacity:1;"
         offset="1"
         id="stop29" /></linearGradient><linearGradient
       id="linearGradient14"
       inkscape:collect="always"><stop
         style="stop-color:#489d11;stop-opacity:1;"
         offset="0"
         id="stop14" /><stop
         style="stop-color:#aaae00;stop-opacity:1;"
         offset="1"
         id="stop15" /></linearGradient><linearGradient
       id="linearGradient3"
       inkscape:collect="always"><stop
         style="stop-color:#489d11;stop-opacity:1;"
         offset="0"
         id="stop2" /><stop
         style="stop-color:#aaae00;stop-opacity:1;"
         offset="1"
         id="stop3" /></linearGradient><linearGradient
       id="linearGradient6"
       inkscape:collect="always"><stop
         style="stop-color:#aaae00;stop-opacity:1;"
         offset="0"
         id="stop7" /><stop
         style="stop-color:#ff3838;stop-opacity:1;"
         offset="1"
         id="stop8" /></linearGradient><linearGradient
       inkscape:collect="always"
       xlink:href="#linearGradient3"
       id="linearGradient11"
       gradientUnits="userSpaceOnUse"
       x1="-10.380401"
       y1="14.327931"
       x2="25.619598"
       y2="0.86959833" /><linearGradient
       inkscape:collect="always"
       xlink:href="#linearGradient5"
       id="linearGradient4"
       gradientUnits="userSpaceOnUse"
       x1="-24.322319"
       y1="14.654367"
       x2="32.297726"
       y2="-5.9071393"
       gradientTransform="matrix(0.57999114,0,0,0.58149125,3.1610393,7.8597011)" /><linearGradient
       inkscape:collect="always"
       xlink:href="#linearGradient14"
       id="linearGradient15"
       x1="-10.852532"
       y1="13.908642"
       x2="25.992348"
       y2="0.52846444"
       gradientUnits="userSpaceOnUse"
       gradientTransform="matrix(0.89128051,0,0,0.89358577,-1.2730391,3.952523)" /><linearGradient
       inkscape:collect="always"
       xlink:href="#linearGradient29"
       id="linearGradient22"
       gradientUnits="userSpaceOnUse"
       gradientTransform="matrix(0.11569959,0,0,0.11559987,9.8090157,20.944856)"
       x1="-141.76491"
       y1="7.9117508"
       x2="74.426315"
       y2="-73.291389" /><linearGradient
       inkscape:collect="always"
       xlink:href="#linearGradient33"
       id="linearGradient25"
       gradientUnits="userSpaceOnUse"
       x1="-6.6875162"
       y1="20.673761"
       x2="18.32572"
       y2="11.286689"
       gradientTransform="translate(0.09439035,1.1856925)" /><linearGradient
       inkscape:collect="always"
       xlink:href="#linearGradient31"
       id="linearGradient26"
       gradientUnits="userSpaceOnUse"
       x1="-6.6875157"
       y1="20.673761"
       x2="18.32572"
       y2="11.263605"
       gradientTransform="translate(0,0.22931894)" /><linearGradient
       inkscape:collect="always"
       xlink:href="#linearGradient6"
       id="linearGradient2"
       gradientUnits="userSpaceOnUse"
       gradientTransform="matrix(0.98870864,0,0,0.98701531,-2.591365,2.9795811)"
       x1="10.619599"
       y1="3.3279314"
       x2="26.619598"
       y2="13.327931" /></defs><g
     inkscape:groupmode="layer"
     id="g7"
     inkscape:label="color_teal_icon"
     style="display:inline"><rect
       style="opacity:1;fill:#00251a;fill-opacity:1;stroke:none;stroke-width:41.8316;stroke-linecap:round;stroke-linejoin:round"
       id="rect1"
       width="30.427084"
       height="30.427084"
       x="-1.7763568e-15"
       y="-1.7763568e-15"
       inkscape:label="Background" /><path
       id="path6"
       style="display:inline;fill:none;fill-opacity:1;stroke:url(#linearGradient2);stroke-width:3.13646;stroke-linecap:square;stroke-dasharray:none"
       inkscape:label="stopwatch"
       d="m 10.565765,1.56823 h 1.605269 M 11.3684,2.4179086 V 4.1621247 M 22.244196,14.459692 h -0.308281 m -1.037149,0.767863 a 9.6652459,9.6625343 0 0 1 -9.52553,9.661525 9.6652459,9.6625343 0 0 1 -9.8009209,-9.382206 9.6652459,9.6625343 0 0 1 9.2421829,-9.932767 9.6652459,9.6625343 0 0 1 10.068115,9.095044"
       transform="matrix(1.0034698,0,0,0.99999888,1.984375,1.984375)" /><path
       style="display:inline;opacity:1;fill:none;fill-opacity:1;stroke:url(#linearGradient11);stroke-width:4.7625;stroke-linecap:square;stroke-dasharray:none"
       d="m 6.1195994,4.8695988 6.9999996,7.9999992 12.5,-11.99999968"
       id="path7"
       inkscape:label="check"
       sodipodi:nodetypes="ccc"
       transform="matrix(1.0034698,0,0,0.99999888,-0.64431368,4.6564407)"
       sodipodi:insensitive="true" /></g><g
     inkscape:groupmode="layer"
     id="g14"
     inkscape:label="white_transparent_icon"
     style="display:inline"><rect
       style="opacity:1;fill:#000000;fill-opacity:0;stroke:none;stroke-width:41.8316;stroke-linecap:round;stroke-linejoin:round"
       id="rect13"
       width="30.427084"
       height="30.427084"
       x="-1.7763568e-15"
       y="-1.7763568e-15"
       inkscape:label="Background" /><path
       id="path13"
       style="display:inline;fill:none;fill-opacity:1;stroke:#ffffff;stroke-width:3.13646;stroke-linecap:square;stroke-dasharray:none;stroke-opacity:1"
       inkscape:label="stopwatch"
       d="m 10.565765,1.56823 h 1.605269 M 11.3684,2.4179086 V 4.1621247 M 22.244196,14.459692 h -0.308281 m -1.037149,0.767863 a 9.6652459,9.6625343 0 0 1 -9.52553,9.661525 9.6652459,9.6625343 0 0 1 -9.8009209,-9.382206 9.6652459,9.6625343 0 0 1 9.2421829,-9.932767 9.6652459,9.6625343 0 0 1 10.068115,9.095044"
       transform="matrix(1.0034698,0,0,0.99999888,1.984375,1.984375)" /><path
       style="display:inline;opacity:1;fill:none;fill-opacity:1;stroke:#ffffff;stroke-width:4.7625;stroke-linecap:square;stroke-dasharray:none;stroke-opacity:1"
       d="m 6.1195994,4.8695988 6.9999996,7.9999992 12.5,-11.99999968"
       id="path14"
       inkscape:label="check"
       sodipodi:nodetypes="ccc"
       transform="matrix(1.0034698,0,0,0.99999888,-0.64431368,4.6564407)" /></g><g
     inkscape:groupmode="layer"
     id="layer2"
     inkscape:label="color_transparent_done"
     style="display:inline"
     transform="matrix(1.0034698,0,0,0.99999889,1.984375,1.984375)"><rect
       style="display:inline;opacity:1;fill:#000000;fill-opacity:0;stroke:none;stroke-width:41.8316;stroke-linecap:round;stroke-linejoin:round"
       id="rect12"
       width="30.427084"
       height="30.427084"
       x="-1.7763568e-15"
       y="-1.7763568e-15"
       inkscape:label="Background"
       transform="matrix(0.99654219,0,0,1.0000011,-1.9775134,-1.9843772)" /><path
       id="path2-7-9"
       style="display:inline;fill:none;fill-opacity:1;stroke:url(#linearGradient2);stroke-width:3.13646;stroke-linecap:square;stroke-dasharray:none"
       inkscape:label="stopwatch"
       d="m 10.565765,1.56823 h 1.605269 M 11.3684,2.4179086 V 4.1621247 M 22.244196,14.459692 h -0.308281 m -1.037149,0.767863 a 9.6652459,9.6625343 0 0 1 -9.52553,9.661525 9.6652459,9.6625343 0 0 1 -9.8009209,-9.382206 9.6652459,9.6625343 0 0 1 9.2421829,-9.932767 9.6652459,9.6625343 0 0 1 10.068115,9.095044" /><path
       id="path4"
       style="display:inline;fill:url(#linearGradient15);fill-opacity:1;stroke:url(#linearGradient4);stroke-width:1.84384;stroke-linecap:round;stroke-linejoin:bevel;stroke-dasharray:none"
       inkscape:label="done"
       d="m 16.940696,15.075486 c 0,3.111847 -2.48877,5.647019 -5.587818,5.692001 -3.0990453,0.04499 -5.6597678,-2.416896 -5.7493626,-5.527442 -0.089595,-3.110546 2.3251454,-5.7168925 5.4216006,-5.8518019 3.096455,-0.1349093 5.726989,2.2516199 5.906104,5.3582649"
       sodipodi:nodetypes="csssc" /></g><g
     inkscape:groupmode="layer"
     id="layer4"
     inkscape:label="color_transparent_backlog"
     style="display:inline"
     transform="matrix(1.0034698,0,0,0.99999888,1.984375,1.984375)"><rect
       style="display:inline;opacity:1;fill:#000000;fill-opacity:0;stroke:none;stroke-width:41.8316;stroke-linecap:round;stroke-linejoin:round"
       id="rect11"
       width="30.427084"
       height="30.427084"
       x="-1.7763568e-15"
       y="-1.7763568e-15"
       inkscape:label="Background"
       transform="matrix(0.99654219,0,0,1.0000011,-1.9775134,-1.9843772)" /><path
       id="path5"
       style="display:inline;fill:none;fill-opacity:1;stroke:url(#linearGradient2);stroke-width:3.13646;stroke-linecap:square;stroke-dasharray:none"
       inkscape:label="stopwatch"
       d="m 10.565765,1.56823 h 1.605269 M 11.3684,2.4179086 V 4.1621247 M 22.244196,14.459692 h -0.308281 m -1.037149,0.767863 a 9.6652459,9.6625343 0 0 1 -9.52553,9.661525 9.6652459,9.6625343 0 0 1 -9.8009209,-9.382206 9.6652459,9.6625343 0 0 1 9.2421829,-9.932767 9.6652459,9.6625343 0 0 1 10.068115,9.095044" /><path
       id="path21"
       style="display:inline;fill:url(#linearGradient22);fill-opacity:1;stroke:url(#linearGradient25);stroke-width:1.17466;stroke-linecap:round;stroke-linejoin:bevel;stroke-dasharray:none"
       inkscape:label="."
       d="m 12.173389,22.383792 c 0,0.402569 -0.323073,0.730534 -0.725369,0.736354 -0.402295,0.0059 -0.73471,-0.312665 -0.746341,-0.715065 -0.01162,-0.4024 0.301833,-0.739573 0.703792,-0.757026 0.401959,-0.01746 0.743437,0.291285 0.766688,0.693179"
       sodipodi:nodetypes="csssc"
       transform="matrix(1.1262082,0,0,1.1262082,-1.6362248,-2.1872201)" /><path
       style="display:inline;fill:none;fill-opacity:1;stroke:url(#linearGradient26);stroke-width:2.34933;stroke-linecap:round;stroke-linejoin:round;stroke-dasharray:none;stroke-opacity:1"
       d="m 7.7666885,12.762696 c 0,-0.538885 0.5388853,-2.694426 3.2333115,-2.694426 2.694425,0 4.311082,1.07777 4.311082,2.694426 0,2.155541 -3.522055,2.033365 -4.311082,3.772197 -0.371127,0.817879 0,2.694426 0,2.694426"
       id="path20"
       sodipodi:nodetypes="cssac"
       inkscape:label="?"
       transform="matrix(1.1262082,0,0,1.1262082,-1.6362248,-2.1872201)" /></g><g
     inkscape:groupmode="layer"
     id="layer3"
     inkscape:label="color_transparent_today"
     style="display:inline"><rect
       style="display:inline;opacity:1;fill:#000000;fill-opacity:0;stroke:none;stroke-width:41.8316;stroke-linecap:round;stroke-linejoin:round"
       id="rect10"
       width="30.427084"
       height="30.427084"
       x="-1.7763568e-15"
       y="-1.7763568e-15"
       inkscape:label="Background" /><path
       id="path1"
       style="display:inline;fill:none;fill-opacity:1;stroke:url(#linearGradient2);stroke-width:3.13646;stroke-linecap:square;stroke-dasharray:none"
       inkscape:label="stopwatch"
       d="m 10.565765,1.56823 h 1.605269 M 11.3684,2.4179086 V 4.1621247 M 22.244196,14.459692 h -0.308281 m -1.037149,0.767863 a 9.6652459,9.6625343 0 0 1 -9.52553,9.661525 9.6652459,9.6625343 0 0 1 -9.8009209,-9.382206 9.6652459,9.6625343 0 0 1 9.2421829,-9.932767 9.6652459,9.6625343 0 0 1 10.068115,9.095044"
       transform="matrix(1.0034698,0,0,0.99999888,1.984375,1.984375)" /></g><g
     inkscape:groupmode="layer"
     id="layer5"
     inkscape:label="color_transparent_icon"
     style="display:inline"><rect
       style="opacity:1;fill:#000000;fill-opacity:0;stroke:none;stroke-width:41.8316;stroke-linecap:round;stroke-linejoin:round"
       id="rect5"
       width="30.427084"
       height="30.427084"
       x="-1.7763568e-15"
       y="-1.7763568e-15"
       inkscape:label="Background" /><path
       id="path3"
       style="display:inline;fill:none;fill-opacity:1;stroke:url(#linearGradient2);stroke-width:3.13646;stroke-linecap:square;stroke-dasharray:none"
       inkscape:label="stopwatch"
       d="m 10.565765,1.56823 h 1.605269 M 11.3684,2.4179086 V 4.1621247 M 22.244196,14.459692 h -0.308281 m -1.037149,0.767863 a 9.6652459,9.6625343 0 0 1 -9.52553,9.661525 9.6652459,9.6625343 0 0 1 -9.8009209,-9.382206 9.6652459,9.6625343 0 0 1 9.2421829,-9.932767 9.6652459,9.6625343 0 0 1 10.068115,9.095044"
       transform="matrix(1.0034698,0,0,0.99999888,1.984375,1.984375)" /><path
       style="display:inline;opacity:1;fill:none;fill-opacity:1;stroke:url(#linearGradient11);stroke-width:4.7625;stroke-linecap:square;stroke-dasharray:none"
       d="m 6.1195994,4.8695988 6.9999996,7.9999992 12.5,-11.99999968"
       id="path2"
       inkscape:label="check"
       sodipodi:nodetypes="ccc"
       transform="matrix(1.0034698,0,0,0.99999888,-0.64431368,4.6564407)"
       sodipodi:insensitive="true" /></g></svg>
