<?xml version="1.0" encoding="UTF-8" standalone="no"?>
<!-- Created with Inkscape (http://www.inkscape.org/) -->

<svg
   width="115"
   height="115"
   viewBox="0 0 30.427083 30.427084"
   version="1.1"
   id="svg1"
   xml:space="preserve"
   xmlns="http://www.w3.org/2000/svg"
   xmlns:svg="http://www.w3.org/2000/svg"><defs
     id="defs1" /><g
     id="g79"
     style="display:inline"><rect
       style="display:inline;opacity:1;fill:#000000;fill-opacity:0;stroke:none;stroke-width:41.8316;stroke-linecap:round;stroke-linejoin:round"
       id="rect73"
       width="30.427084"
       height="30.427084"
       x="-1.7763568e-15"
       y="-1.7763568e-15" /><path
       id="path73"
       style="display:inline;fill:none;fill-opacity:1;stroke:#ffffff;stroke-width:2.87031;stroke-linecap:square;stroke-dasharray:none;stroke-opacity:1"
       d="M 4.2085357,9.5730966 4.9443352,8.2986555 m 0.3043372,1.0253361 1.379963,0.7967224 M 19.751603,7.6089103 c 4.178935,2.4127087 5.638794,7.7465527 3.277693,11.9756077 -2.361106,4.229055 -7.668075,5.785908 -11.915272,3.495463 C 6.8668274,20.789533 5.2535421,15.500701 7.4918569,11.205427 9.7301728,6.9101535 14.9905,5.2004005 19.302409,7.3666669" /><path
       id="path74"
       style="display:inline;fill:none;fill-opacity:1;stroke:#ffffff;stroke-width:2.87031;stroke-linecap:square;stroke-dasharray:none;stroke-opacity:1"
       d="M 4.6806322,22.085933 3.9448334,20.811492 m 1.0401355,0.249104 1.3799629,-0.796722 M 10.75113,7.6431509 c 4.178936,-2.4127095 9.528111,-1.0100624 12.010031,3.1492411 2.481916,4.159304 1.176707,9.533699 -2.930477,12.066656 C 15.7235,25.392004 10.336591,24.144733 7.7359325,20.058659 5.135274,15.972585 6.2847483,10.562132 10.316744,7.9110424" /><path
       id="path75"
       style="display:inline;fill:none;fill-opacity:1;stroke:#ffffff;stroke-width:2.87031;stroke-linecap:square;stroke-dasharray:none;stroke-opacity:1"
       d="m 15.891864,27.748605 h -1.471597 m 0.735798,-0.776231 V 25.37893 M 6.4192955,15.270011 c -10e-8,-4.825418 3.8893155,-8.7566161 8.7323365,-8.82637 4.843022,-0.06975 8.844782,3.747793 8.984796,8.571196 0.140013,4.823402 -3.633611,8.864964 -8.472585,9.074164 C 10.824869,24.2982 6.7140157,20.597499 6.4341036,15.780146" /><path
       id="path76"
       style="display:inline;fill:none;fill-opacity:1;stroke:#ffffff;stroke-width:2.87031;stroke-linecap:square;stroke-dasharray:none;stroke-opacity:1"
       d="m 26.308687,20.990697 -0.7358,1.274441 M 25.26855,21.239802 23.888587,20.44308 M 10.765619,22.954883 C 6.5866838,20.542174 5.1268246,15.208331 7.4879267,10.979275 9.8490326,6.7502199 15.156001,5.1933671 19.403198,7.483813 c 4.247198,2.2904466 5.860482,7.579282 3.622168,11.874555 -2.238316,4.295272 -7.498644,6.005025 -11.810552,3.838759" /><path
       id="path77"
       style="display:inline;fill:none;fill-opacity:1;stroke:#ffffff;stroke-width:2.87031;stroke-linecap:square;stroke-dasharray:none;stroke-opacity:1"
       d="m 25.746452,8.5470996 0.735798,1.274441 M 25.442115,9.5724356 24.062152,10.369158 M 19.675954,22.98988 C 15.497017,25.402589 10.147843,23.999943 7.6659238,19.840641 5.1840069,15.681337 6.4892167,10.306942 10.5964,7.7739844 c 4.107184,-2.5329567 9.494092,-1.285685 12.094752,2.8003896 2.600658,4.086074 1.451184,9.496527 -2.580813,12.147615" /><path
       id="path78"
       style="display:inline;fill:none;fill-opacity:1;stroke:#ffffff;stroke-width:2.87031;stroke-linecap:square;stroke-dasharray:none;stroke-opacity:1"
       d="m 14.613469,2.8242177 h 1.471597 m -0.735798,0.7762312 v 1.5934437 m 8.73677,10.1089204 c 0,4.825418 -3.889315,8.756614 -8.732337,8.826368 -4.843023,0.06975 -8.8447811,-3.747792 -8.9847952,-8.571194 -0.1400132,-4.823403 3.6336102,-8.8649663 8.4725842,-9.0741658 4.838974,-0.2091988 8.949829,3.4915014 9.22974,8.3088568" /><path
       id="path79"
       style="display:inline;fill:none;fill-opacity:1;stroke:#ffffff;stroke-width:3.38398;stroke-linecap:round;stroke-dasharray:none;stroke-opacity:1"
       d="m 24.086038,15.302813 c 0,4.825418 -3.889315,8.756614 -8.732337,8.826368 -4.843023,0.06975 -8.8447811,-3.747792 -8.9847952,-8.571194 -0.1400132,-4.823403 3.6336102,-8.8649663 8.4725842,-9.0741658 4.838974,-0.2091988 8.949829,3.4915014 9.22974,8.3088568" /></g></svg>
