<?xml version="1.0" encoding="UTF-8" standalone="no"?>
<!-- Created with Inkscape (http://www.inkscape.org/) -->

<svg
   width="115"
   height="115"
   viewBox="0 0 30.427083 30.427084"
   version="1.1"
   id="svg1"
   xml:space="preserve"
   xmlns="http://www.w3.org/2000/svg"
   xmlns:svg="http://www.w3.org/2000/svg"><defs
     id="defs1" /><g
     id="g56"
     style="display:inline"><rect
       style="display:inline;opacity:1;fill:#000000;fill-opacity:0;stroke:none;stroke-width:41.8316;stroke-linecap:round;stroke-linejoin:round"
       id="rect42"
       width="30.427084"
       height="30.427084"
       x="-1.7763568e-15"
       y="-1.7763568e-15" /><path
       id="path53"
       style="display:inline;fill:#ffffff;fill-opacity:1;stroke:none;stroke-width:2.62973;stroke-linecap:square;stroke-dasharray:none"
       d="m 20.483848,10.431772 c 0,7.553887 0,14.163541 -1.483848,14.163541 H 7.1292182 c -1.4838477,-2e-6 -1.4838477,-6.609654 -1.4838477,-14.163541" /><path
       id="path55"
       style="display:inline;fill:none;fill-opacity:1;stroke:#ffffff;stroke-width:3.13646;stroke-linecap:square;stroke-dasharray:none;stroke-opacity:1"
       d="m 20.942958,10.015636 c 0,8.000008 0,15.000017 -1.993085,15.000017 H 3.0051976 c -1.9930844,-1e-6 -1.9930844,-7.000009 -1.9930844,-15.000017"
       transform="matrix(1.0034698,0,0,0.99999888,1.984375,1.984375)" /><path
       id="path56"
       style="display:inline;fill:none;fill-opacity:1;stroke:#ffffff;stroke-width:3.13646;stroke-linecap:square;stroke-dasharray:none;stroke-opacity:1"
       d="M 9.9809931,1.5448439 H 11.974078 M 10.977535,2.4179086 V 4.0156294 M 1.0121132,6.0156316 c 0,0 0,0 9.9654218,0 9.965423,0 9.965423,0 9.965423,0"
       transform="matrix(1.0034698,0,0,0.99999888,1.984375,1.984375)" /></g></svg>
