<?xml version="1.0" encoding="UTF-8" standalone="no"?>
<!-- Created with Inkscape (http://www.inkscape.org/) -->

<svg
   width="115"
   height="115"
   viewBox="0 0 30.427083 30.427084"
   version="1.1"
   id="svg1"
   xml:space="preserve"
   xmlns="http://www.w3.org/2000/svg"
   xmlns:svg="http://www.w3.org/2000/svg"><defs
     id="defs1" /><g
     id="g9"
     style="display:inline"
     transform="matrix(1.0034698,0,0,0.99999888,1.984375,1.984375)"><rect
       style="display:inline;opacity:1;fill:#000000;fill-opacity:0;stroke:none;stroke-width:41.8316;stroke-linecap:round;stroke-linejoin:round"
       id="rect2"
       width="30.427084"
       height="30.427084"
       x="-1.7763568e-15"
       y="-1.7763568e-15"
       transform="matrix(0.99654219,0,0,1.0000011,-1.9775134,-1.9843772)" /><path
       id="path8"
       style="display:inline;fill:none;fill-opacity:1;stroke:#ffffff;stroke-width:3.13646;stroke-linecap:square;stroke-dasharray:none;stroke-opacity:1"
       d="m 10.565765,1.56823 h 1.605269 M 11.3684,2.4179086 V 4.1621247 M 22.244196,14.459692 h -0.308281 m -1.037149,0.767863 a 9.6652459,9.6625343 0 0 1 -9.52553,9.661525 9.6652459,9.6625343 0 0 1 -9.8009209,-9.382206 9.6652459,9.6625343 0 0 1 9.2421829,-9.932767 9.6652459,9.6625343 0 0 1 10.068115,9.095044" /><path
       id="path9"
       style="display:inline;fill:#ffffff;fill-opacity:1;stroke:#ffffff;stroke-width:1.84384;stroke-linecap:round;stroke-linejoin:bevel;stroke-dasharray:none;stroke-opacity:1"
       d="m 16.940696,15.075486 c 0,3.111847 -2.48877,5.647019 -5.587818,5.692001 -3.0990453,0.04499 -5.6597678,-2.416896 -5.7493626,-5.527442 -0.089595,-3.110546 2.3251454,-5.7168925 5.4216006,-5.8518019 3.096455,-0.1349093 5.726989,2.2516199 5.906104,5.3582649" /></g></svg>
