<?xml version="1.0" encoding="UTF-8" standalone="no"?>
<!-- Created with Inkscape (http://www.inkscape.org/) -->

<svg
   width="115"
   height="115"
   viewBox="0 0 30.427083 30.427084"
   version="1.1"
   id="svg1"
   xml:space="preserve"
   xmlns="http://www.w3.org/2000/svg"
   xmlns:svg="http://www.w3.org/2000/svg"><defs
     id="defs1" /><g
     id="g14"
     style="display:inline"><rect
       style="opacity:1;fill:#000000;fill-opacity:0;stroke:none;stroke-width:41.8316;stroke-linecap:round;stroke-linejoin:round"
       id="rect13"
       width="30.427084"
       height="30.427084"
       x="-1.7763568e-15"
       y="-1.7763568e-15" /><path
       id="path13"
       style="display:inline;fill:none;fill-opacity:1;stroke:#ffffff;stroke-width:3.13646;stroke-linecap:square;stroke-dasharray:none;stroke-opacity:1"
       d="m 10.565765,1.56823 h 1.605269 M 11.3684,2.4179086 V 4.1621247 M 22.244196,14.459692 h -0.308281 m -1.037149,0.767863 a 9.6652459,9.6625343 0 0 1 -9.52553,9.661525 9.6652459,9.6625343 0 0 1 -9.8009209,-9.382206 9.6652459,9.6625343 0 0 1 9.2421829,-9.932767 9.6652459,9.6625343 0 0 1 10.068115,9.095044"
       transform="matrix(1.0034698,0,0,0.99999888,1.984375,1.984375)" /><path
       style="display:inline;opacity:1;fill:none;fill-opacity:1;stroke:#ffffff;stroke-width:4.7625;stroke-linecap:square;stroke-dasharray:none;stroke-opacity:1"
       d="m 6.1195994,4.8695988 6.9999996,7.9999992 12.5,-11.99999968"
       id="path14"
       transform="matrix(1.0034698,0,0,0.99999888,-0.64431368,4.6564407)" /></g></svg>
